<?xml version="1.0" standalone="no"?>
<!DOCTYPE svg PUBLIC "-//W3C//DTD SVG 20010904//EN"
 "http://www.w3.org/TR/2001/REC-SVG-20010904/DTD/svg10.dtd">
<svg version="1.0" xmlns="http://www.w3.org/2000/svg"
 width="596.000000pt" height="596.000000pt" viewBox="0 0 596.000000 596.000000"
 preserveAspectRatio="xMidYMid meet">
<metadata>
Created by potrace 1.11, written by Peter Selinger 2001-2013
</metadata>
<g transform="translate(0.000000,596.000000) scale(0.100000,-0.100000)"
fill="#000000" stroke="none">
<path d="M1160 5928 c-57 -51 -210 -189 -275 -248 -33 -30 -80 -73 -105 -95
-24 -22 -74 -67 -110 -100 -36 -33 -101 -91 -145 -130 -43 -38 -107 -97 -142
-129 -35 -32 -72 -66 -82 -75 -38 -34 -164 -146 -175 -157 -6 -5 -36 -32 -66
-60 l-55 -49 0 -1848 0 -1848 572 -567 c314 -312 583 -578 598 -592 l27 -25
1776 -1 1777 0 118 115 c65 64 335 330 599 592 l480 477 0 1798 c0 990 -1
1822 -1 1850 -1 55 -5 61 -87 130 -27 23 -67 59 -90 80 -22 22 -76 70 -120
109 -43 38 -81 72 -84 75 -5 6 -175 160 -254 231 -21 18 -53 48 -71 64 -17 17
-63 58 -102 92 -38 34 -83 74 -100 90 -33 30 -173 157 -239 216 l-41 37 -1784
0 -1784 -1 -35 -31z m3600 -2944 l0 -1784 -1780 0 -1780 0 0 1784 0 1784 1780
0 1780 0 0 -1784z"/>
</g>
</svg>
